<?xml version="1.0" standalone="no"?>
  <!DOCTYPE svg PUBLIC "-//W3C//DTD SVG 1.1//EN" "http://www.w3.org/Graphics/SVG/1.1/DTD/svg11.dtd" >
  <svg>
  <metadata>
  Created by font-carrier
  </metadata>
  <defs>
  <font id="AAlbionicBold" horiz-adv-x="1171" vert-adv-y="1171" >
    <font-face
      
      font-family="a_Albionic"
      
      font-weight="400"
      
      font-stretch="normal"
      
      units-per-em="1000"
      
      ascent="898"
      
      descent="-170"
      
    />
      <missing-glyph />

      

      
      <glyph glyph-name="uni21" unicode="&#x21;" d="M301 666Q301 646 288 570L234 253L155 253L101 570Q89 640 89 666Q89 730 195 730Q301 730 301 666M288 82Q288-11 195-11Q102-11 102 82Q102 175 195 175Q288 175 288 82Z"  horiz-adv-x="390" vert-adv-y="1000"  />

      
      <glyph glyph-name="uni22" unicode="&#x22;" d="M303 720L263 480L226 480L186 720L303 720M142 720L102 480L63 480L25 720L142 720Z"  horiz-adv-x="328" vert-adv-y="1000"  />

      
      <glyph glyph-name="uni23" unicode="&#x23;" d="M597 501L586 441L486 441L457 282L558 282L550 222L448 222L419 42L303 42L333 222L236 222L207 42L92 42L122 222L20 222L29 282L131 282L158 441L56 441L67 501L167 501L197 682L312 682L282 501L379 501L410 682L525 682L495 501L597 501M371 441L271 441L246 282L343 282L371 441Z"  horiz-adv-x="617" vert-adv-y="1000"  />

      
      <glyph glyph-name="uni24" unicode="&#x24;" d="M558 213Q558 132 511 73Q464 14 386-5Q352-13 308-13L308-93L271-93L271-13Q57 12 57 184Q57 200 61 232L156 257Q144 218 144 179Q144 57 271 44L271 268Q63 340 63 509Q63 711 271 730L271 795L308 795L308 733Q529 733 529 521L438 500Q443 523 443 548Q443 666 308 674L308 476Q421 428 435 420Q497 388 524 346Q558 296 558 213M271 490L271 671Q261 673 262 673Q186 673 186 587Q186 527 271 490M401 143Q401 216 308 253L308 44Q401 60 401 143Z"  horiz-adv-x="617" vert-adv-y="1000"  />

      
      <glyph glyph-name="uni25" unicode="&#x25;" d="M758 179Q758-6 601-6Q445-6 445 179Q445 365 601 365Q758 365 758 179M581 720L266 0L195 0L510 720L581 720M331 540Q331 354 174 354Q18 354 18 540Q18 726 174 726Q331 726 331 540M641 179Q641 335 601 335Q562 335 562 179Q562 25 601 25Q641 25 641 179M213 540Q213 694 174 694Q135 694 135 540Q135 385 174 385Q213 385 213 540Z"  horiz-adv-x="776" vert-adv-y="1000"  />

      
      <glyph glyph-name="uni26" unicode="&#x26;" d="M603 0L411 0L384 47Q316-15 237-15Q122-15 72 46Q22 107 22 203Q22 325 185 407Q131 496 131 559Q131 637 181 684.50Q231 732 309 732Q451 732 451 592Q451 487 362 431L468 238Q507 307 540 482L590 482Q590 333 500 181L603 0M394 581Q394 675 322 675Q272 675 272 619Q272 593 290 561L335 481Q394 516 394 581M356 101L213 356Q165 328 165 255Q165 196 198 134Q237 62 290 62Q328 62 356 101Z"  horiz-adv-x="617" vert-adv-y="1000"  />

      
      <glyph glyph-name="uni27" unicode="&#x27;" d="M142 720L102 480L63 480L25 720L142 720Z"  horiz-adv-x="166" vert-adv-y="1000"  />

      
      <glyph glyph-name="uni28" unicode="&#x28;" d="M338-205Q43-67 43 270Q43 607 338 745L338 675Q205 518 205 257Q205 1 338-156L338-205Z"  horiz-adv-x="377" vert-adv-y="1000"  />

      
      <glyph glyph-name="uni29" unicode="&#x29;" d="M335 270Q335-66 40-205L40-135Q172 26 172 283Q172 538 40 696L40 745Q335 606 335 270Z"  horiz-adv-x="377" vert-adv-y="1000"  />

      
      <glyph glyph-name="uni2a" unicode="&#x2a;" d="M403 578L264 561L363 462Q324 445 295 409L233 537L172 410Q148 440 103 462L203 561L63 578Q86 610 93 659L217 594L190 732Q215 725 232 725Q251 725 276 732L253 595L378 660Q381 613 403 578Z"  horiz-adv-x="466" vert-adv-y="1000"  />

      
      <glyph glyph-name="uni2b" unicode="&#x2b;" d="M518 321L302 321L302 95L225 95L225 321L10 321L10 401L225 401L225 625L302 625L302 401L518 401L518 321Z"  horiz-adv-x="529" vert-adv-y="1000"  />

      
      <glyph glyph-name="uni2c" unicode="&#x2c;" d="M232 72Q232-98 82-148L82-80Q125-52 138 0Q58 0 58 90Q58 183 146 183Q232 183 232 72Z"  horiz-adv-x="288" vert-adv-y="1000"  />

      
      <glyph glyph-name="uni2d" unicode="&#x2d;" d="M258 206L18 206L18 344L258 344L258 206Z"  horiz-adv-x="276" vert-adv-y="1000"  />

      
      <glyph glyph-name="uni2010" unicode="&#x2010;" d="M258 206L18 206L18 344L258 344L258 206Z"  horiz-adv-x="276" vert-adv-y="1000"  />

      
      <glyph glyph-name="uni2e" unicode="&#x2e;" d="M232 82Q232-11 144-11Q57-11 57 82Q57 175 144 175Q232 175 232 82Z"  horiz-adv-x="288" vert-adv-y="1000"  />

      
      <glyph glyph-name="uni2f" unicode="&#x2f;" d="M392 720L61-179L-11-179L321 720L392 720Z"  horiz-adv-x="433" vert-adv-y="1000"  />

      
      <glyph glyph-name="uni30" unicode="&#x30;" d="M591 360Q591-12 309-12Q26-12 26 360Q26 731 309 731Q591 731 591 360M385 360Q385 673 309 673Q232 673 232 360Q232 46 309 46Q385 46 385 360Z"  horiz-adv-x="617" vert-adv-y="1000"  />

      
      <glyph glyph-name="uni31" unicode="&#x31;" d="M427 0L236 0L236 542Q164 504 96 498L96 593Q246 608 307 720L427 720L427 0Z"  horiz-adv-x="617" vert-adv-y="1000"  />

      
      <glyph glyph-name="uni32" unicode="&#x32;" d="M557 536Q557 504 547 474Q521 396 359 257L261 173L552 173L552 0L49 0L49 104L192 253Q279 343 308 382Q371 468 371 537Q371 667 274 667Q158 667 158 511Q158 472 176 406L71 433Q58 485 58 513Q58 731 311 731Q418 731 482 688Q557 637 557 536Z"  horiz-adv-x="617" vert-adv-y="1000"  />

      
      <glyph glyph-name="uni33" unicode="&#x33;" d="M557 238Q557 118 476 50Q400-13 277-13Q44-13 44 158Q44 184 50 219L139 239Q130 197 130 160Q130 53 238 53Q366 53 366 247Q366 385 256 385Q223 385 187 360L150 415L400 569L92 569L76 720L519 720L495 569L350 471Q443 460 500 396Q557 332 557 238Z"  horiz-adv-x="617" vert-adv-y="1000"  />

      
      <glyph glyph-name="uni34" unicode="&#x34;" d="M559 150L484 150L484 0L292 0L292 150L41 150L41 239L356 720L484 720L484 232L559 232L559 150M296 232L296 506L129 232L296 232Z"  horiz-adv-x="617" vert-adv-y="1000"  />

      
      <glyph glyph-name="uni35" unicode="&#x35;" d="M560 238Q560 118 479 50Q403-13 281-13Q48-13 48 158Q48 194 54 219L143 239Q133 199 133 160Q133 53 241 53Q370 53 370 247Q370 385 260 385Q194 385 144 311L66 331L129 720L523 720L498 569L178 569L153 415Q235 473 321 473Q425 473 492.50 407Q560 341 560 238Z"  horiz-adv-x="617" vert-adv-y="1000"  />

      
      <glyph glyph-name="uni36" unicode="&#x36;" d="M577 248Q577 133 511 60Q445-13 331-13Q42-13 42 348Q42 507 113 612Q195 732 347 732Q543 732 543 578Q543 552 537 534L449 518Q457 545 457 578Q457 675 372 675Q300 675 271 605.50Q242 536 242 414Q298 477 376 477Q467 477 524 407Q577 341 577 248M386 247Q386 403 318 403Q242 403 242 236Q242 44 315 44Q386 44 386 247Z"  horiz-adv-x="617" vert-adv-y="1000"  />

      
      <glyph glyph-name="uni37" unicode="&#x37;" d="M553 610Q379 362 379 42L379 0L161 0Q179 316 395 556L49 556L73 720L553 720L553 610Z"  horiz-adv-x="617" vert-adv-y="1000"  />

      
      <glyph glyph-name="uni38" unicode="&#x38;" d="M583 224Q583 110 497 45Q419-14 302-14Q198-14 122 37Q35 95 35 194Q35 292 140 343Q50 412 50 513Q50 618 128 677Q199 730 307 730Q395 730 457 691Q529 645 529 561Q529 475 447 426Q583 350 583 224M445 542Q445 673 302 673Q180 673 180 579Q180 521 288 486Q326 474 400 449Q445 490 445 542M434 156Q434 215 373 247Q358 255 261 287Q220 300 187 312Q121 268 121 194Q121 128 178 84Q230 44 298 44Q350 44 390 73Q434 106 434 156Z"  horiz-adv-x="617" vert-adv-y="1000"  />

      
      <glyph glyph-name="uni39" unicode="&#x39;" d="M573 371Q573 212 502 108Q421-13 269-13Q73-13 73 141Q73 146 77 186L166 202Q159 170 159 141Q159 44 245 44Q315 44 344.50 103Q374 162 374 306Q322 243 240 243Q148 243 92 313Q39 378 39 472Q39 586 105.50 659Q172 732 285 732Q573 732 573 371M374 483Q374 675 302 675Q230 675 230 473Q230 316 297 316Q374 316 374 483Z"  horiz-adv-x="617" vert-adv-y="1000"  />

      
      <glyph glyph-name="uni3a" unicode="&#x3a;" d="M232 414Q232 321 144 321Q57 321 57 414Q57 506 144 506Q232 506 232 414M232 82Q232-11 144-11Q57-11 57 82Q57 175 144 175Q232 175 232 82Z"  horiz-adv-x="288" vert-adv-y="1000"  />

      
      <glyph glyph-name="uni3b" unicode="&#x3b;" d="M232 414Q232 321 144 321Q57 321 57 414Q57 506 144 506Q232 506 232 414M232 72Q232-98 82-148L82-80Q125-52 138 0Q58 0 58 90Q58 183 146 183Q232 183 232 72Z"  horiz-adv-x="288" vert-adv-y="1000"  />

      
      <glyph glyph-name="uni3c" unicode="&#x3c;" d="M417 33L90 229L90 360L417 556L417 399L246 294L417 188L417 33Z"  horiz-adv-x="529" vert-adv-y="1000"  />

      
      <glyph glyph-name="uni3d" unicode="&#x3d;" d="M475 360L54 360L54 441L475 441L475 360M475 185L54 185L54 266L475 266L475 185Z"  horiz-adv-x="529" vert-adv-y="1000"  />

      
      <glyph glyph-name="uni3e" unicode="&#x3e;" d="M439 229L111 33L111 188L282 294L111 399L111 556L439 360L439 229Z"  horiz-adv-x="529" vert-adv-y="1000"  />

      
      <glyph glyph-name="uni3f" unicode="&#x3f;" d="M486 511Q486 426 433 361Q376 291 293 291Q241 291 184 330L184 253L102 253L102 426L177 426Q194 348 245 348Q313 348 313 477Q313 673 227 673Q160 673 160 577Q160 546 167 504L84 528Q76 574 76 592Q76 731 256 731Q486 731 486 511M241 82Q241-11 148-11Q55-11 55 82Q55 175 148 175Q241 175 241 82Z"  horiz-adv-x="518" vert-adv-y="1000"  />

      
      <glyph glyph-name="uni40" unicode="&#x40;" d="M774 424Q774 302 700 229.50Q626 157 504 157Q429 157 420 196Q375 158 338 158Q230 158 230 286Q230 372 268 445Q314 534 392 534Q444 534 469 479L477 523Q533 523 595 533L546 249Q545 243 545 241Q545 215 571 215Q631 215 664 291Q690 351 690 420Q690 529 610 603Q530 677 420 677Q285 677 200 578Q120 483 120 346Q120 217 199 129Q282 37 409 37Q502 37 627 95L648 46Q523-15 406-15Q244-15 132 82Q15 184 15 344Q15 509 138 623Q257 734 424 734Q561 734 664 649Q774 558 774 424M456 426Q456 481 425 481Q392 481 372 379Q357 306 357 249Q357 211 382 211Q422 211 442 302Q456 363 456 426Z"  horiz-adv-x="789" vert-adv-y="1000"  />

      
      <glyph glyph-name="uni41" unicode="&#x41;" d="M569 0L367 0L325 156L115 156L71 0L-7 0L199 720L375 720L569 0M306 228L225 548L136 228L306 228Z"  horiz-adv-x="562" vert-adv-y="1000"  />

      
      <glyph glyph-name="uni42" unicode="&#x42;" d="M637 192Q637 0 403 0L59 0L59 720L369 720Q607 720 607 543Q607 418 462 382Q637 348 637 192M409 538Q409 660 317 660L261 660L261 407L323 407Q409 407 409 538M432 194Q432 347 316 347L261 347L261 59L318 59Q432 59 432 194Z"  horiz-adv-x="653" vert-adv-y="1000"  />

      
      <glyph glyph-name="uni43" unicode="&#x43;" d="M607 195Q607 129 564 78Q524 32 459 7Q407-13 338-13Q30-13 30 348Q30 507 111 614Q200 732 354 732Q455 732 517.50 676Q580 620 580 520L491 488Q494 512 494 537Q494 674 371 674Q241 674 241 335Q241 45 384 45Q450 45 488 87Q526 129 526 196Q526 212 519 266L607 239L607 195Z"  horiz-adv-x="624" vert-adv-y="1000"  />

      
      <glyph glyph-name="uni44" unicode="&#x44;" d="M654 359Q654 0 333 0L60 0L60 720L333 720Q654 720 654 359M444 361Q444 550 416 606Q397 644 352 651Q335 654 314 654L262 654L262 65L314 65Q352 65 376.50 74Q401 83 416 114Q444 170 444 361Z"  horiz-adv-x="683" vert-adv-y="1000"  />

      
      <glyph glyph-name="uni45" unicode="&#x45;" d="M552 0L59 0L59 720L510 720L510 648L261 648L261 424L459 424L459 359L261 359L261 72L552 72L552 0Z"  horiz-adv-x="555" vert-adv-y="1000"  />

      
      <glyph glyph-name="uni46" unicode="&#x46;" d="M513 648L261 648L261 424L446 424L446 359L261 359L261 0L59 0L59 720L513 720L513 648Z"  horiz-adv-x="520" vert-adv-y="1000"  />

      
      <glyph glyph-name="uni47" unicode="&#x47;" d="M617 0L553 0L531 50Q448-13 354-13Q192-13 108 91Q30 187 30 353Q30 517 117 621Q211 732 371 732Q454 732 522 668.50Q590 605 590 522L501 488L501 522Q501 584 473 623Q441 667 381 667Q341 667 315.50 658Q290 649 275 617Q248 560 248 348Q248 87 303 62Q323 53 349 53Q432 53 432 139L432 359L332 359L332 424L617 424L617 0Z"  horiz-adv-x="658" vert-adv-y="1000"  />

      
      <glyph glyph-name="uni48" unicode="&#x48;" d="M626 0L425 0L425 359L260 359L260 0L59 0L59 720L260 720L260 424L425 424L425 720L626 720L626 0Z"  horiz-adv-x="686" vert-adv-y="1000"  />

      
      <glyph glyph-name="uni49" unicode="&#x49;" d="M263 0L60 0L60 720L263 720L263 0Z"  horiz-adv-x="321" vert-adv-y="1000"  />

      
      <glyph glyph-name="uni4a" unicode="&#x4a;" d="M376 257Q376-16 191-16Q115-16 58 28Q-4 77-4 150Q-4 195 12 253L85 274Q69 189 69 167Q69 49 136 49Q175 49 175 158L175 720L376 720L376 257Z"  horiz-adv-x="432" vert-adv-y="1000"  />

      
      <glyph glyph-name="uni4b" unicode="&#x4b;" d="M678 0L452 0L290 315L261 282L261 0L59 0L59 720L261 720L261 399L501 720L594 720L422 493L678 0Z"  horiz-adv-x="668" vert-adv-y="1000"  />

      
      <glyph glyph-name="uni4c" unicode="&#x4c;" d="M547 0L60 0L60 720L262 720L262 72L547 72L547 0Z"  horiz-adv-x="529" vert-adv-y="1000"  />

      
      <glyph glyph-name="uni4d" unicode="&#x4d;" d="M705 0L511 0L511 495L509 495L375 0L263 0L127 486L125 486L125 0L57 0L57 720L261 720L387 264L511 720L705 720L705 0Z"  horiz-adv-x="764" vert-adv-y="1000"  />

      
      <glyph glyph-name="uni4e" unicode="&#x4e;" d="M568 0L412 0L125 456L125 0L56 0L56 720L183 720L501 228L501 720L568 720L568 0Z"  horiz-adv-x="624" vert-adv-y="1000"  />

      
      <glyph glyph-name="uni4f" unicode="&#x4f;" d="M647 361Q647-13 338-13Q30-13 30 369Q30 732 345 732Q647 732 647 361M437 361Q437 639 383 666Q365 675 338 675Q312 675 294 666Q241 639 241 361Q241 81 294 54Q312 45 338 45Q365 45 383 54Q437 81 437 361Z"  horiz-adv-x="678" vert-adv-y="1000"  />

      
      <glyph glyph-name="uni50" unicode="&#x50;" d="M615 509Q615 295 332 295L262 295L262 0L60 0L60 720L359 720Q615 720 615 509M417 513Q417 654 307 654L262 654L262 361L307 361Q417 361 417 513Z"  horiz-adv-x="623" vert-adv-y="1000"  />

      
      <glyph glyph-name="uni51" unicode="&#x51;" d="M646 361Q646 96 486 18Q512-47 547-47Q589-47 589-7Q589 12 586 23L639 2Q643-38 643-39Q643-94 609-125.50Q575-157 520-157Q403-157 376-13L357-13Q177-13 98 92Q29 183 29 369Q29 732 343 732Q646 732 646 361M434 361Q434 486 430 530Q418 655 373 670Q358 675 336 675Q310 675 292 666Q240 639 240 361Q240 220 248 152L254 158Q268 173 281 187Q300 205 313 209Q321 211 333 211Q388 211 420 138L423 138Q426 138 429 163Q434 210 434 361M369 50L369 55Q369 96 351 115Q333 134 319 134Q293 134 264 91Q281 45 336 45Q356 45 369 50Z"  horiz-adv-x="673" vert-adv-y="1000"  />

      
      <glyph glyph-name="uni52" unicode="&#x52;" d="M633 0L414 0Q392 72 392 124L392 222Q392 281 375 310Q353 346 297 346L262 346L262 0L60 0L60 720L357 720Q460 720 530 679Q615 629 615 533Q615 401 466 363Q512 345 533 332Q575 306 588 256Q595 228 595 160Q595 59 633 0M417 530Q417 654 301 654L262 654L262 405L301 405Q417 405 417 530Z"  horiz-adv-x="658" vert-adv-y="1000"  />

      
      <glyph glyph-name="uni53" unicode="&#x53;" d="M542 213Q542 105 466 44Q396-13 286-13Q29-13 29 194Q29 210 31 236L128 257Q116 191 116 178Q116 44 264 44Q383 44 383 141Q383 211 242 267Q36 348 36 517Q36 620 110 678Q179 732 284 732Q513 732 513 519L420 500Q426 530 426 549Q426 675 278 675Q163 675 163 589Q163 525 293 477Q542 386 542 213Z"  horiz-adv-x="572" vert-adv-y="1000"  />

      
      <glyph glyph-name="uni54" unicode="&#x54;" d="M547 648L376 648L376 0L163 0L163 648L-7 648L-7 720L547 720L547 648Z"  horiz-adv-x="539" vert-adv-y="1000"  />

      
      <glyph glyph-name="uni55" unicode="&#x55;" d="M581 236Q581-12 317-12Q53-12 53 236L53 720L254 720L254 230Q254 145 273 112Q299 65 377 65Q515 65 515 236L515 720L581 720L581 236Z"  horiz-adv-x="630" vert-adv-y="1000"  />

      
      <glyph glyph-name="uni56" unicode="&#x56;" d="M560 720L359 0L179 0L-6 720L198 720L335 175L484 720L560 720Z"  horiz-adv-x="553" vert-adv-y="1000"  />

      
      <glyph glyph-name="uni57" unicode="&#x57;" d="M820 720L630 0L499 0L403 392L305 0L172 0L-6 720L198 720L301 283L407 720L525 720L629 282L740 720L820 720Z"  horiz-adv-x="813" vert-adv-y="1000"  />

      
      <glyph glyph-name="uni58" unicode="&#x58;" d="M603 0L378 0L246 253L98 0L7 0L204 329L-6 720L217 720L340 485L475 720L562 720L382 411L603 0Z"  horiz-adv-x="595" vert-adv-y="1000"  />

      
      <glyph glyph-name="uni59" unicode="&#x59;" d="M545 720L376 266L376 0L175 0L175 266L-12 720L197 720L338 373L466 720L545 720Z"  horiz-adv-x="531" vert-adv-y="1000"  />

      
      <glyph glyph-name="uni5a" unicode="&#x5a;" d="M561 654L228 72L538 72L538 0L5 0L5 72L335 648L53 648L53 720L561 720L561 654Z"  horiz-adv-x="570" vert-adv-y="1000"  />

      
      <glyph glyph-name="uni5b" unicode="&#x5b;" d="M410-179L143-179L143 720L410 720L410 660L296 660L296-120L410-120L410-179Z"  horiz-adv-x="511" vert-adv-y="1000"  />

      
      <glyph glyph-name="uni5c" unicode="&#x5c;" d="M442-179L372-179L40 720L111 720L442-179Z"  horiz-adv-x="433" vert-adv-y="1000"  />

      
      <glyph glyph-name="uni5d" unicode="&#x5d;" d="M370-179L102-179L102-120L215-120L215 660L102 660L102 720L370 720L370-179Z"  horiz-adv-x="511" vert-adv-y="1000"  />

      
      <glyph glyph-name="uni5e" unicode="&#x5e;" d="M450 448L322 448L265 614L207 448L78 448L182 720L346 720L450 448Z"  horiz-adv-x="529" vert-adv-y="1000"  />

      
      <glyph glyph-name="uni5f" unicode="&#x5f;" d="M518-150L-6-150L-6-60L518-60L518-150Z"  horiz-adv-x="512" vert-adv-y="1000"  />

      
      <glyph glyph-name="uni60" unicode="&#x60;" d="M212 595L168 595L0 734L140 734L212 595Z"  horiz-adv-x="243" vert-adv-y="1000"  />

      
      <glyph glyph-name="uni61" unicode="&#x61;" d="M528 18Q462-8 404-8Q317-8 295 50Q253-10 173-10Q21-10 21 138Q21 248 159 296Q286 340 286 396Q286 474 213 474Q129 474 129 399Q129 376 141 337L57 354Q54 378 54 398Q54 518 260 518Q354 518 401 487Q457 449 457 360L457 100Q457 54 486 54Q494 54 513 64L528 18M284 158L284 303Q269 284 247 270Q193 236 193 160Q193 60 230 60Q284 60 284 158Z"  horiz-adv-x="513" vert-adv-y="1000"  />

      
      <glyph glyph-name="uni62" unicode="&#x62;" d="M495 269Q495-11 294-11Q200-11 132 84L89 0L46 0L46 682Q75 682 220 693L220 450Q266 517 326 517Q495 517 495 269M324 294Q324 297 319 363Q313 444 272 444Q215 444 215 268Q215 62 272 62Q315 62 319 170Q324 292 324 294Z"  horiz-adv-x="521" vert-adv-y="1000"  />

      
      <glyph glyph-name="uni63" unicode="&#x63;" d="M460 181Q460-11 262-11Q26-11 26 242Q26 364 90 439Q158 518 278 518Q444 518 444 360L363 318Q364 366 364 373Q364 474 295 474Q232 474 213 374Q204 328 204 227Q204 140 213 105Q232 34 295 34Q391 34 391 165Q391 194 385 225L460 202L460 181Z"  horiz-adv-x="473" vert-adv-y="1000"  />

      
      <glyph glyph-name="uni64" unicode="&#x64;" d="M475 0L303 0L303 44Q258-12 187-12Q26-12 26 250Q26 518 196 518Q264 518 303 456L303 682Q372 682 475 693L475 0M306 277Q306 279 303 361Q301 405 285.50 424.50Q270 444 251 444Q211 444 208 360Q204 254 204 253Q204 250 206 156Q208 62 256 62Q302 62 304 154Q306 272 306 277Z"  horiz-adv-x="522" vert-adv-y="1000"  />

      
      <glyph glyph-name="uni65" unicode="&#x65;" d="M459 163Q447-12 264-12Q26-12 26 240Q26 351 82 430Q144 518 251 518Q458 518 458 236L206 236Q206 38 300 38Q360 38 379 85Q390 113 390 184L459 163M308 292Q308 468 259 468Q224 468 213 393Q209 371 206 292L308 292Z"  horiz-adv-x="485" vert-adv-y="1000"  />

      
      <glyph glyph-name="uni66" unicode="&#x66;" d="M326 586Q326 581 325 575L243 544Q250 568 250 586Q250 638 215 638Q186 638 186 592Q186 562 229 504L297 504L297 448L229 448L229 0L57 0L57 448L-4 448L-4 504L57 504L57 549Q57 611 98 652Q139 693 201 693Q326 693 326 586Z"  horiz-adv-x="306" vert-adv-y="1000"  />

      
      <glyph glyph-name="uni67" unicode="&#x67;" d="M521-14Q521-181 236-181Q23-181 23-86Q23-33 110-12Q18 12 18 72Q18 144 126 202Q30 244 30 341Q30 421 93 471Q152 518 234 518Q256 518 310 511Q310 516 309 525Q308 534 308 538Q308 638 406 638Q485 638 485 568Q485 515 437 515Q426 515 407 524Q388 533 377 533Q359 533 359 499Q479 444 479 340Q479 266 411 218Q350 175 272 175Q239 175 183 184Q150 164 150 144Q150 116 192 116Q218 116 270 120Q322 124 348 124Q521 124 521-14M300 328Q300 468 251 468Q204 468 204 341Q204 224 252 224Q300 224 300 328M380-76Q380-33 248-33Q126-33 126-82Q126-132 243-132Q380-132 380-76Z"  horiz-adv-x="517" vert-adv-y="1000"  />

      
      <glyph glyph-name="uni68" unicode="&#x68;" d="M496 0L324 0L324 383Q324 426 297 426Q277 426 262 405Q220 347 220 251L220 0L46 0L46 682Q112 682 220 693L220 418Q276 517 376 517Q496 517 496 403L496 0Z"  horiz-adv-x="546" vert-adv-y="1000"  />

      
      <glyph glyph-name="uni69" unicode="&#x69;" d="M217 634Q217 568 137 568Q57 568 57 634Q57 700 137 700Q217 700 217 634M222 0L49 0L49 504Q137 504 222 517L222 0Z"  horiz-adv-x="272" vert-adv-y="1000"  />

      
      <glyph glyph-name="uni6a" unicode="&#x6a;" d="M217 634Q217 568 136 568Q57 568 57 634Q57 700 136 700Q217 700 217 634M230-64L202-150Q171-184 102-184Q2-184-27-97L33-52Q32-68 32-79Q32-129 61-129Q89-129 89-84Q89-58 55 0L55 504Q129 504 227 517L227 6Q227 6 230-64Z"  horiz-adv-x="276" vert-adv-y="1000"  />

      
      <glyph glyph-name="uni6b" unicode="&#x6b;" d="M515 0L333 0L250 222L220 181L220 0L46 0L46 682Q122 682 220 694L220 266L403 504L472 504L374 374L515 0Z"  horiz-adv-x="509" vert-adv-y="1000"  />

      
      <glyph glyph-name="uni6c" unicode="&#x6c;" d="M220 0L46 0L46 682Q93 682 220 692L220 0Z"  horiz-adv-x="266" vert-adv-y="1000"  />

      
      <glyph glyph-name="uni6d" unicode="&#x6d;" d="M745 0L573 0L573 378Q573 428 546 428Q482 428 482 286L482 0L310 0L310 370Q310 427 286 427Q221 427 221 285L221 0L49 0L49 506Q137 506 221 518L221 431Q284 518 371 518Q448 518 482 436Q540 518 626 518Q745 518 745 391L745 0Z"  horiz-adv-x="795" vert-adv-y="1000"  />

      
      <glyph glyph-name="uni6e" unicode="&#x6e;" d="M499 0L325 0L325 370Q325 426 295 426Q257 426 237 367Q221 323 221 276L221 0L49 0L49 505Q145 505 221 518L221 423Q285 517 378 517Q499 517 499 388L499 0Z"  horiz-adv-x="547" vert-adv-y="1000"  />

      
      <glyph glyph-name="uni6f" unicode="&#x6f;" d="M499 253Q499-11 263-11Q26-11 26 253Q26 517 263 517Q499 517 499 253M319 253Q319 472 263 472Q204 472 204 253Q204 34 263 34Q319 34 319 253Z"  horiz-adv-x="523" vert-adv-y="1000"  />

      
      <glyph glyph-name="uni70" unicode="&#x70;" d="M500 253Q500-14 333-14Q262-14 220 42L220-170L46-170L46 504Q121 504 220 516L220 440Q267 517 336 517Q424 517 467 424Q500 353 500 253M321 256Q321 444 274 444Q217 444 217 256Q217 60 272 60Q321 60 321 256Z"  horiz-adv-x="526" vert-adv-y="1000"  />

      
      <glyph glyph-name="uni71" unicode="&#x71;" d="M480-170L306-170L306 54Q256-12 195-12Q26-12 26 238Q26 518 223 518Q315 518 396 420L437 504L480 504L480-170M311 262Q311 434 252 434Q204 434 204 282Q204 62 252 62Q311 62 311 262Z"  horiz-adv-x="524" vert-adv-y="1000"  />

      
      <glyph glyph-name="uni72" unicode="&#x72;" d="M408 420Q408 398 390 321L272 321Q273 325 283 361Q290 386 290 402Q290 434 269 434Q246 434 232 378Q221 335 221 302L221 0L49 0L49 504Q147 504 221 517L221 434Q263 517 324 517Q408 517 408 420Z"  horiz-adv-x="413" vert-adv-y="1000"  />

      
      <glyph glyph-name="uni73" unicode="&#x73;" d="M442 158Q442-12 236-12Q21-12 21 158L110 178Q107 165 107 146Q107 101 142.50 69.50Q178 38 224 38Q286 38 286 94Q286 130 186 176Q34 247 34 354Q34 433 101 477Q159 516 242 516Q404 516 419 374L336 359Q336 472 236 472Q176 472 176 419Q176 387 245 353Q351 299 373 283Q442 231 442 158Z"  horiz-adv-x="461" vert-adv-y="1000"  />

      
      <glyph glyph-name="uni74" unicode="&#x74;" d="M315 74Q297-6 187-6Q57-6 57 112L57 446L-2 446L-2 502L57 502L57 592Q150 620 229 666L229 502L305 502L305 446L229 446L229 90Q229 56 249 56Q265 56 267 78L315 74Z"  horiz-adv-x="312" vert-adv-y="1000"  />

      
      <glyph glyph-name="uni75" unicode="&#x75;" d="M501 0L328 0L328 80Q268-10 175-10Q49-10 49 120L49 504Q152 509 221 517L221 125Q221 74 250 74Q328 74 328 250L328 504Q430 509 501 517L501 0Z"  horiz-adv-x="550" vert-adv-y="1000"  />

      
      <glyph glyph-name="uni76" unicode="&#x76;" d="M435 504L274 0L155 0L-12 504L173 504L274 166L378 504L435 504Z"  horiz-adv-x="423" vert-adv-y="1000"  />

      
      <glyph glyph-name="uni77" unicode="&#x77;" d="M650 504L494 0L384 0L319 256L256 0L145 0L-12 504L169 504L252 208L321 504L432 504L506 208L593 504L650 504Z"  horiz-adv-x="639" vert-adv-y="1000"  />

      
      <glyph glyph-name="uni78" unicode="&#x78;" d="M461 0L265 0L175 165L61 0L-6 0L146 219L-5 504L194 504L272 358L375 504L440 504L300 302L461 0Z"  horiz-adv-x="457" vert-adv-y="1000"  />

      
      <glyph glyph-name="uni79" unicode="&#x79;" d="M447 504L229-65Q184-182 109-182Q35-182 8-116L69-70Q76-128 107-128Q129-128 143-111Q154-98 182-25L-11 504L180 504L276 208L384 504L447 504Z"  horiz-adv-x="437" vert-adv-y="1000"  />

      
      <glyph glyph-name="uni7a" unicode="&#x7a;" d="M406 0L7 0L7 62L215 448L28 448L28 504L406 504L406 448L197 56L406 56L406 0Z"  horiz-adv-x="416" vert-adv-y="1000"  />

      
      <glyph glyph-name="uni7b" unicode="&#x7b;" d="M388-179L233-179Q164-179 139-134Q121-101 121-25L121 157Q121 253 71 253L71 291Q121 291 121 376L121 560Q121 637 139 673Q164 724 233 724L388 724L388 667L316 667Q274 667 274 601L274 407Q274 317 212 269Q274 224 274 131L274-63Q274-122 316-122L388-122L388-179Z"  horiz-adv-x="468" vert-adv-y="1000"  />

      
      <glyph glyph-name="uni7c" unicode="&#x7c;" d="M347-60L151-60L151 780L347 780L347-60Z"  horiz-adv-x="498" vert-adv-y="1000"  />

      
      <glyph glyph-name="uni7d" unicode="&#x7d;" d="M397 253Q347 253 347 157L347-25Q347-101 329-134Q304-179 235-179L80-179L80-122L152-122Q194-122 194-63L194 131Q194 224 256 269Q194 317 194 407L194 601Q194 667 152 667L80 667L80 724L235 724Q304 724 329 673Q347 637 347 560L347 376Q347 291 397 291L397 253Z"  horiz-adv-x="468" vert-adv-y="1000"  />

      
      <glyph glyph-name="uni7e" unicode="&#x7e;" d="M470 396Q414 309 326 309Q298 309 245 323.50Q192 338 164 338Q129 338 105 309L28 353Q82 438 172 438Q205 438 256.50 424Q308 410 332 410Q371 410 394 438L470 396Z"  horiz-adv-x="498" vert-adv-y="1000"  />

      
      <glyph glyph-name="unia4" unicode="&#xa4;" d="M595 136L536 78L459 155Q394 108 312 108Q233 108 166 155L89 78L30 136L108 213Q61 278 61 361Q61 443 107 507L30 584L89 642L167 565Q237 612 312 612Q388 612 459 565L536 642L595 584L518 507Q564 446 564 361Q564 278 517 213L595 136M439 361Q439 414 402 452Q365 490 312 490Q259 490 223 452Q187 414 187 361Q187 307 222.50 268.50Q258 230 312 230Q365 230 402 268.50Q439 307 439 361Z"  horiz-adv-x="626" vert-adv-y="1000"  />

      
      <glyph glyph-name="unia6" unicode="&#xa6;" d="M347 419L151 419L151 780L347 780L347 419M347-60L151-60L151 300L347 300L347-60Z"  horiz-adv-x="498" vert-adv-y="1000"  />

      
      <glyph glyph-name="unia7" unicode="&#xa7;" d="M591 344Q591 256 512 192Q573 138 573 78Q573-27 500-83Q435-133 327-133Q212-133 154.50-96Q97-59 97 44L197 78Q190 54 190 34Q190-71 325-71Q466-71 466 16Q466 72 352 101Q259 125 212 143Q156 164 128 185Q97 208 86 233Q75 258 75 290Q75 372 151 445Q108 485 108 549Q108 645 177 696Q239 742 338 742Q425 742 486 710Q563 670 563 591L469 562Q474 577 474 589Q474 684 335 684Q224 684 224 612Q224 571 342 528L464 484Q591 438 591 344M500 269Q500 280 492 291Q468 323 266 388Q237 396 185 418Q159 392 159 369Q159 333 302 283Q302 283 407 247Q448 233 474 215Q500 247 500 269Z"  horiz-adv-x="659" vert-adv-y="1000"  />

      
      <glyph glyph-name="unia9" unicode="&#xa9;" d="M785 360Q785 206 675 95.50Q565-15 411-15Q258-15 147 96Q36 207 36 360Q36 512 147.50 623Q259 734 411 734Q565 734 675 624Q785 514 785 360M730 360Q730 492 636.50 587Q543 682 411 682Q279 682 186 587Q93 492 93 360Q93 228 186 133Q279 38 411 38Q543 38 636.50 133Q730 228 730 360M584 276Q584 137 416 137Q224 137 224 353Q224 449 276 513Q331 583 425 583Q568 583 568 445L506 418Q507 428 507 454Q507 545 439 545Q362 545 362 346Q362 175 447 175Q529 175 529 274Q529 275 523 323L582 308Q584 298 584 276Z"  horiz-adv-x="822" vert-adv-y="1000"  />

      
      <glyph glyph-name="uniab" unicode="&#xab;" d="M384 65L283 65L193 254L193 298L283 485L384 485L301 276L384 65M229 65L129 65L37 254L37 298L129 485L229 485L145 276L229 65Z"  horiz-adv-x="431" vert-adv-y="1000"  />

      
      <glyph glyph-name="uniac" unicode="&#xac;" d="M479 221L314 221L314 312L42 312L42 433L479 433L479 221Z"  horiz-adv-x="529" vert-adv-y="1000"  />

      
      <glyph glyph-name="uniae" unicode="&#xae;" d="M785 360Q785 206 675 95.50Q565-15 411-15Q258-15 147 96Q36 207 36 360Q36 512 147.50 623Q259 734 411 734Q565 734 675 624Q785 514 785 360M730 360Q730 492 636.50 587Q543 682 411 682Q279 682 186 587Q93 492 93 360Q93 228 186 133Q279 38 411 38Q543 38 636.50 133Q730 228 730 360M607 143L463 143Q452 171 449 213Q448 249 447 285.50Q446 322 428 336Q413 347 376 347L376 143L244 143L244 575L430 575Q591 575 591 463Q591 386 507 361Q555 340 570 297Q575 281 581 216Q586 166 607 143M464 461Q464 532 397 532L376 532L376 390L397 390Q464 390 464 461Z"  horiz-adv-x="822" vert-adv-y="1000"  />

      
      <glyph glyph-name="unib0" unicode="&#xb0;" d="M392 582Q392 520 347.50 475.50Q303 431 241 431Q179 431 134.50 475.50Q90 520 90 582Q90 645 134.50 689.50Q179 734 241 734Q303 734 347.50 689.50Q392 645 392 582M325 582Q325 669 241 669Q156 669 156 582Q156 496 241 496Q325 496 325 582Z"  horiz-adv-x="481" vert-adv-y="1000"  />

      
      <glyph glyph-name="unib1" unicode="&#xb1;" d="M466 321L304 321L304 159L224 159L224 321L63 321L63 401L224 401L224 562L304 562L304 401L466 401L466 321M466 0L63 0L63 82L466 82L466 0Z"  horiz-adv-x="529" vert-adv-y="1000"  />

      
      <glyph glyph-name="unib6" unicode="&#xb6;" d="M494 648L429 648L429-86L360-86L360 648L300 648L300-86L230-86L230 293L174 293Q12 293 12 505Q12 585 42 644Q80 720 152 720L494 720L494 648Z"  horiz-adv-x="529" vert-adv-y="1000"  />

      
      <glyph glyph-name="unibb" unicode="&#xbb;" d="M393 254L302 65L201 65L287 276L201 485L302 485L393 298L393 254M239 254L147 65L48 65L131 276L48 485L147 485L239 298L239 254Z"  horiz-adv-x="431" vert-adv-y="1000"  />

      
      <glyph glyph-name="unib5" unicode="&#xb5;" d="M485 0L323 0L323 84Q288 0 243 0Q223 0 206 13L206-140L45-93L45 532Q100 532 206 545L206 136Q206 78 251 78Q323 78 323 264L323 532Q418 537 485 545L485 0Z"  horiz-adv-x="529" vert-adv-y="1000"  />

      
      <glyph glyph-name="uni03BC" unicode="&#x03BC;" d="M485 0L323 0L323 84Q288 0 243 0Q223 0 206 13L206-140L45-93L45 532Q100 532 206 545L206 136Q206 78 251 78Q323 78 323 264L323 532Q418 537 485 545L485 0Z"  horiz-adv-x="529" vert-adv-y="1000"  />

      
      <glyph glyph-name="uni0401" unicode="&#x0401;" d="M484 820Q484 762 403 762Q319 762 319 820Q319 878 403 878Q484 878 484 820M255 820Q255 762 172 762Q90 762 90 820Q90 878 172 878Q255 878 255 820M552 0L59 0L59 720L510 720L510 648L261 648L261 429L470 429L470 358L261 358L261 72L552 72L552 0Z"  horiz-adv-x="555" vert-adv-y="1000"  />

      
      <glyph glyph-name="uni0410" unicode="&#x0410;" d="M569 0L367 0L325 156L115 156L71 0L-7 0L199 720L375 720L569 0M306 228L225 548L136 228L306 228Z"  horiz-adv-x="562" vert-adv-y="1000"  />

      
      <glyph glyph-name="uni0411" unicode="&#x0411;" d="M615 211Q615 0 359 0L60 0L60 720L557 720L557 648L262 648L262 424L332 424Q615 424 615 211M417 207Q417 359 307 359L262 359L262 65L307 65Q417 65 417 207Z"  horiz-adv-x="632" vert-adv-y="1000"  />

      
      <glyph glyph-name="uni0412" unicode="&#x0412;" d="M637 192Q637 0 403 0L59 0L59 720L369 720Q607 720 607 543Q607 418 462 382Q637 348 637 192M409 538Q409 660 317 660L261 660L261 407L323 407Q409 407 409 538M432 194Q432 347 316 347L261 347L261 59L318 59Q432 59 432 194Z"  horiz-adv-x="653" vert-adv-y="1000"  />

      
      <glyph glyph-name="uni0413" unicode="&#x0413;" d="M513 648L261 648L261 0L59 0L59 720L513 720L513 648Z"  horiz-adv-x="505" vert-adv-y="1000"  />

      
      <glyph glyph-name="uni0414" unicode="&#x0414;" d="M604-95L535-127L535 0L69 0L69-127L0-95L0 72L50 72Q68 72 84.50 106.50Q101 141 101 196L101 720L535 720L535 72L604 72L604-95M334 72L334 648L170 648L170 215Q170 129 144 72L334 72Z"  horiz-adv-x="612" vert-adv-y="1000"  />

      
      <glyph glyph-name="uni0415" unicode="&#x0415;" d="M552 0L59 0L59 720L510 720L510 648L261 648L261 424L459 424L459 359L261 359L261 72L552 72L552 0Z"  horiz-adv-x="555" vert-adv-y="1000"  />

      
      <glyph glyph-name="uni0416" unicode="&#x0416;" d="M1017 0L793 0L629 315L600 282L600 0L407 0L407 282L378 315L215 0L-8 0L247 493L75 720L168 720L407 399L407 720L600 720L600 399L839 720L933 720L760 493L1017 0Z"  horiz-adv-x="1008" vert-adv-y="1000"  />

      
      <glyph glyph-name="uni0417" unicode="&#x0417;" d="M558 198Q558-13 278-13Q28-13 28 162Q28 197 37 239L129 266Q116 211 116 169Q116 53 234 53Q355 53 355 194Q355 289 303 317Q269 335 164 335L164 420Q264 420 297 437Q348 463 348 553Q348 668 239 668Q132 668 132 565Q132 522 140 488L46 520Q46 732 277 732Q539 732 539 546Q539 424 390 380Q558 340 558 198Z"  horiz-adv-x="591" vert-adv-y="1000"  />

      
      <glyph glyph-name="uni0418" unicode="&#x0418;" d="M645 0L444 0L444 530L441 530L261 0L59 0L59 720L261 720L261 190L263 190L444 720L645 720L645 0Z"  horiz-adv-x="705" vert-adv-y="1000"  />

      
      <glyph glyph-name="uni0419" unicode="&#x0419;" d="M516 863Q504 807 455 779Q413 754 352 754Q292 754 250 779Q202 808 190 863L261 898Q261 811 352 811Q442 811 442 898L516 863M645 0L444 0L444 530L441 530L261 0L59 0L59 720L261 720L261 190L263 190L444 720L645 720L645 0Z"  horiz-adv-x="705" vert-adv-y="1000"  />

      
      <glyph glyph-name="uni041A" unicode="&#x041A;" d="M678 0L452 0L290 315L261 282L261 0L59 0L59 720L261 720L261 399L501 720L594 720L422 493L678 0Z"  horiz-adv-x="668" vert-adv-y="1000"  />

      
      <glyph glyph-name="uni041B" unicode="&#x041B;" d="M612 0L411 0L411 648L247 648L247 215Q247 87 223 37Q198-16 134-16Q0-16 0 141Q0 187 16 245L90 266Q72 191 72 158Q72 49 141 49Q179 49 179 158L179 720L612 720L612 0Z"  horiz-adv-x="672" vert-adv-y="1000"  />

      
      <glyph glyph-name="uni041C" unicode="&#x041C;" d="M705 0L511 0L511 495L509 495L375 0L263 0L127 486L125 486L125 0L57 0L57 720L261 720L387 264L511 720L705 720L705 0Z"  horiz-adv-x="764" vert-adv-y="1000"  />

      
      <glyph glyph-name="uni041D" unicode="&#x041D;" d="M626 0L425 0L425 359L260 359L260 0L59 0L59 720L260 720L260 424L425 424L425 720L626 720L626 0Z"  horiz-adv-x="686" vert-adv-y="1000"  />

      
      <glyph glyph-name="uni041E" unicode="&#x041E;" d="M647 361Q647-13 338-13Q30-13 30 369Q30 732 345 732Q647 732 647 361M437 361Q437 639 383 666Q365 675 338 675Q312 675 294 666Q241 639 241 361Q241 81 294 54Q312 45 338 45Q365 45 383 54Q437 81 437 361Z"  horiz-adv-x="678" vert-adv-y="1000"  />

      
      <glyph glyph-name="uni041F" unicode="&#x041F;" d="M627 0L426 0L426 648L261 648L261 0L60 0L60 720L627 720L627 0Z"  horiz-adv-x="687" vert-adv-y="1000"  />

      
      <glyph glyph-name="uni0420" unicode="&#x0420;" d="M615 509Q615 295 332 295L262 295L262 0L60 0L60 720L359 720Q615 720 615 509M417 513Q417 654 307 654L262 654L262 361L307 361Q417 361 417 513Z"  horiz-adv-x="623" vert-adv-y="1000"  />

      
      <glyph glyph-name="uni0421" unicode="&#x0421;" d="M607 195Q607 129 564 78Q524 32 459 7Q407-13 338-13Q30-13 30 348Q30 507 111 614Q200 732 354 732Q455 732 517.50 676Q580 620 580 520L491 488Q494 512 494 537Q494 674 371 674Q241 674 241 335Q241 45 384 45Q450 45 488 87Q526 129 526 196Q526 212 519 266L607 239L607 195Z"  horiz-adv-x="624" vert-adv-y="1000"  />

      
      <glyph glyph-name="uni0422" unicode="&#x0422;" d="M547 648L376 648L376 0L163 0L163 648L-7 648L-7 720L547 720L547 648Z"  horiz-adv-x="539" vert-adv-y="1000"  />

      
      <glyph glyph-name="uni0423" unicode="&#x0423;" d="M565 720L339 137Q310 62 279 29Q236-16 168-16Q65-16 65 96Q65 120 77 161L141 180Q118 139 118 104Q118 35 166 35Q243 35 243 111Q243 145 225 186L-12 720L200 720L349 373L484 720L565 720Z"  horiz-adv-x="550" vert-adv-y="1000"  />

      
      <glyph glyph-name="uni0424" unicode="&#x0424;" d="M909 388Q909 267 825 206Q752 152 626 152L557 152L557 0L363 0L363 152L293 152Q167 152 93 206Q8 267 8 388Q8 503 80 562Q146 616 264 616L363 616L363 720L557 720L557 616L654 616Q773 616 838 563Q909 504 909 388M711 385Q711 551 590 551L557 551L557 217L590 217Q711 217 711 385M363 217L363 551L329 551Q207 551 207 385Q207 217 329 217L363 217Z"  horiz-adv-x="920" vert-adv-y="1000"  />

      
      <glyph glyph-name="uni0425" unicode="&#x0425;" d="M603 0L378 0L246 253L98 0L7 0L204 329L-6 720L217 720L340 485L475 720L562 720L382 411L603 0Z"  horiz-adv-x="595" vert-adv-y="1000"  />

      
      <glyph glyph-name="uni0426" unicode="&#x0426;" d="M686-95L617-127L617 0L59 0L59 720L261 720L261 72L416 72L416 720L617 720L617 72L686 72L686-95Z"  horiz-adv-x="686" vert-adv-y="1000"  />

      
      <glyph glyph-name="uni0427" unicode="&#x0427;" d="M576 0L375 0L375 305Q327 295 277 295Q145 295 90 335Q24 383 24 509L24 720L219 720L219 513Q219 393 270 374Q288 367 311 367Q329 367 375 374L375 720L576 720L576 0Z"  horiz-adv-x="636" vert-adv-y="1000"  />

      
      <glyph glyph-name="uni0428" unicode="&#x0428;" d="M840 0L60 0L60 720L262 720L262 72L416 72L416 630L485 630L485 72L640 72L640 720L840 720L840 0Z"  horiz-adv-x="899" vert-adv-y="1000"  />

      
      <glyph glyph-name="uni0429" unicode="&#x0429;" d="M909-95L840-127L840 0L60 0L60 720L262 720L262 72L416 72L416 630L485 630L485 72L640 72L640 720L840 720L840 72L909 72L909-95Z"  horiz-adv-x="909" vert-adv-y="1000"  />

      
      <glyph glyph-name="uni042A" unicode="&#x042A;" d="M694 211Q694 0 439 0L137 0L137 648L-7 648L-7 720L340 720L340 424L410 424Q694 424 694 211M495 207Q495 359 385 359L340 359L340 65L385 65Q495 65 495 207Z"  horiz-adv-x="711" vert-adv-y="1000"  />

      
      <glyph glyph-name="uni042B" unicode="&#x042B;" d="M878 0L677 0L677 720L878 720L878 0M616 211Q616 0 360 0L60 0L60 720L262 720L262 424L332 424Q616 424 616 211M417 207Q417 359 307 359L262 359L262 65L307 65Q417 65 417 207Z"  horiz-adv-x="938" vert-adv-y="1000"  />

      
      <glyph glyph-name="uni042C" unicode="&#x042C;" d="M615 211Q615 0 359 0L59 0L59 720L261 720L261 424L331 424Q615 424 615 211M416 207Q416 359 306 359L261 359L261 65L306 65Q416 65 416 207Z"  horiz-adv-x="631" vert-adv-y="1000"  />

      
      <glyph glyph-name="uni042D" unicode="&#x042D;" d="M595 348Q595-13 286-13Q203-13 139 18Q64 54 35 123Q19 161 19 239L105 266Q98 226 98 196Q98 130 136 87.50Q174 45 240 45Q383 45 383 359L240 359L240 424L383 424Q383 674 253 674Q130 674 130 537Q130 536 133 488L44 520Q44 621 108 678Q169 732 271 732Q437 732 520 620Q595 520 595 348Z"  horiz-adv-x="624" vert-adv-y="1000"  />

      
      <glyph glyph-name="uni042E" unicode="&#x042E;" d="M919 360Q919-12 628-12Q336-12 336 359L261 359L261 0L59 0L59 720L261 720L261 424L339 424Q360 731 628 731Q919 731 919 360M707 360Q707 673 628 673Q548 673 548 360Q548 46 628 46Q707 46 707 360Z"  horiz-adv-x="945" vert-adv-y="1000"  />

      
      <glyph glyph-name="uni042F" unicode="&#x042F;" d="M597 0L397 0L397 320L363 320Q264 320 264 222L264 124Q264 55 243 0L23 0Q41 20 52 58.50Q63 97 63 160Q63 243 88 282Q116 327 193 345Q129 362 92 406Q52 452 52 516Q52 620 127 673Q192 720 300 720L597 720L597 0M397 379L397 654L355 654Q297 654 267 613Q241 577 241 516Q241 379 355 379L397 379Z"  horiz-adv-x="658" vert-adv-y="1000"  />

      
      <glyph glyph-name="uni0430" unicode="&#x0430;" d="M528 18Q462-8 404-8Q317-8 295 50Q253-10 173-10Q21-10 21 138Q21 248 159 296Q286 340 286 396Q286 438 270 456Q254 474 213 474Q129 474 129 399Q129 376 141 337L57 354Q54 378 54 398Q54 518 260 518Q354 518 401 487Q457 449 457 360L457 100Q457 54 486 54Q494 54 513 64L528 18M284 158L284 303Q269 284 247 270Q193 236 193 160Q193 60 230 60Q284 60 284 158Z"  horiz-adv-x="513" vert-adv-y="1000"  />

      
      <glyph glyph-name="uni0431" unicode="&#x0431;" d="M489 241Q489 126 433 60Q373-11 260-11Q148-11 87 60Q30 127 30 241L30 289Q30 428 57 521Q100 669 204 669Q228 669 245 667Q254 666 286 659Q312 654 328 654Q363 654 388 676.50Q413 699 419 734L477 665Q450 577 335 577Q310 577 270 589Q230 601 204 601Q159 601 121 551Q83 501 83 408Q109 452 158.50 477.50Q208 503 260 503Q374 503 434 427Q489 358 489 241M314 241Q314 458 260 458Q204 458 204 242Q204 34 260 34Q314 34 314 241Z"  horiz-adv-x="514" vert-adv-y="1000"  />

      
      <glyph glyph-name="uni0432" unicode="&#x0432;" d="M503 145Q503 64 454 30Q412 0 327 0L49 0L49 504L300 504Q480 504 480 377Q480 296 377 274L377 272Q503 250 503 145M310 377Q310 421 299 438Q285 462 245 462L220 462L220 293L245 293Q310 293 310 377M321 145Q321 200 306 222Q288 251 236 251L220 251L220 41L236 41Q289 41 307 70Q321 91 321 145Z"  horiz-adv-x="527" vert-adv-y="1000"  />

      
      <glyph glyph-name="uni0433" unicode="&#x0433;" d="M397 456L222 456L222 0L49 0L49 504L397 504L397 456Z"  horiz-adv-x="390" vert-adv-y="1000"  />

      
      <glyph glyph-name="uni0434" unicode="&#x0434;" d="M457-66L404-89L404 0L52 0L52-89L0-66L0 45L16 45Q54 45 65.50 79Q77 113 77 166L77 504L404 504L404 45L457 45L457-66M232 45L232 456L127 456L127 162Q127 82 105 45L232 45Z"  horiz-adv-x="462" vert-adv-y="1000"  />

      
      <glyph glyph-name="uni0435" unicode="&#x0435;" d="M459 163Q447-12 264-12Q26-12 26 240Q26 351 82 430Q144 518 251 518Q458 518 458 236L206 236Q206 38 300 38Q360 38 379 85Q390 113 390 184L459 163M308 292Q308 468 259 468Q224 468 213 393Q209 371 206 292L308 292Z"  horiz-adv-x="485" vert-adv-y="1000"  />

      
      <glyph glyph-name="uni0436" unicode="&#x0436;" d="M774 0L585 0L468 207L468 0L300 0L300 207L182 0L-7 0L194 336Q173 361 152 387Q123 420 104 432Q78 449 40 449L64 514Q116 500 151 468Q173 448 215 392L300 278L300 504L468 504L468 278L551 392Q622 490 704 514L727 449Q678 449 638 413Q623 398 575 336L774 0Z"  horiz-adv-x="768" vert-adv-y="1000"  />

      
      <glyph glyph-name="uni0437" unicode="&#x0437;" d="M439 136Q439 49 369 14Q319-11 221-11Q20-11 20 113Q20 146 26 167L97 186Q86 155 86 118Q86 34 175 34Q266 34 266 136Q266 211 235 234Q210 252 131 252L131 294Q203 294 226 305Q262 324 262 387Q262 470 179 470Q99 470 99 396Q99 362 104 342L33 364Q33 515 221 515Q310 515 357 494Q425 463 425 385Q425 300 319 273Q439 250 439 136Z"  horiz-adv-x="466" vert-adv-y="1000"  />

      
      <glyph glyph-name="uni0438" unicode="&#x0438;" d="M533 0L361 0L361 371L360 371L222 0L49 0L49 504L222 504L222 133L223 133L361 504L533 504L533 0Z"  horiz-adv-x="583" vert-adv-y="1000"  />

      
      <glyph glyph-name="uni0439" unicode="&#x0439;" d="M437 657Q413 548 291 548Q169 548 145 657L210 692Q210 596 291 596Q371 596 371 692L437 657M533 0L361 0L361 371L360 371L222 0L49 0L49 504L222 504L222 133L223 133L361 504L533 504L533 0Z"  horiz-adv-x="583" vert-adv-y="1000"  />

      
      <glyph glyph-name="uni043A" unicode="&#x043A;" d="M527 0L331 0L222 207L220 207L220 0L49 0L49 504L220 504L220 278L305 392Q344 445 370 467Q407 500 457 514L480 449Q433 449 394 415Q377 400 331 342L527 0Z"  horiz-adv-x="520" vert-adv-y="1000"  />

      
      <glyph glyph-name="uni043B" unicode="&#x043B;" d="M404 0L234 0L234 454L129 454L129 129Q129 65 117 35Q98-11 44-11Q13-11-7 8L9 60Q27 34 48 34Q54 34 60 37Q78 47 78 136L78 504L404 504L404 0Z"  horiz-adv-x="464" vert-adv-y="1000"  />

      
      <glyph glyph-name="uni043C" unicode="&#x043C;" d="M568 0L396 0L396 346L395 346L287 0L201 0L95 307L92 307L92 0L44 0L44 504L201 504L299 180L396 504L568 504L568 0Z"  horiz-adv-x="617" vert-adv-y="1000"  />

      
      <glyph glyph-name="uni043D" unicode="&#x043D;" d="M503 0L329 0L329 251L222 251L222 0L49 0L49 504L222 504L222 296L329 296L329 504L503 504L503 0Z"  horiz-adv-x="551" vert-adv-y="1000"  />

      
      <glyph glyph-name="uni043E" unicode="&#x043E;" d="M499 253Q499-11 263-11Q26-11 26 253Q26 517 263 517Q499 517 499 253M319 253Q319 472 263 472Q204 472 204 253Q204 34 263 34Q319 34 319 253Z"  horiz-adv-x="523" vert-adv-y="1000"  />

      
      <glyph glyph-name="uni043F" unicode="&#x043F;" d="M499 0L326 0L326 456L222 456L222 0L49 0L49 504L499 504L499 0Z"  horiz-adv-x="548" vert-adv-y="1000"  />

      
      <glyph glyph-name="uni0440" unicode="&#x0440;" d="M500 253Q500-14 333-14Q262-14 220 42L220-170L46-170L46 504Q121 504 220 516L220 440Q267 517 336 517Q424 517 467 424Q500 353 500 253M321 256Q321 444 274 444Q217 444 217 256Q217 60 272 60Q321 60 321 256Z"  horiz-adv-x="526" vert-adv-y="1000"  />

      
      <glyph glyph-name="uni0441" unicode="&#x0441;" d="M460 181Q460-11 262-11Q26-11 26 242Q26 364 90 439Q158 518 278 518Q444 518 444 360L363 318Q364 366 364 373Q364 474 295 474Q232 474 213 374Q204 328 204 227Q204 140 213 105Q232 34 295 34Q391 34 391 165Q391 194 385 225L460 202L460 181Z"  horiz-adv-x="473" vert-adv-y="1000"  />

      
      <glyph glyph-name="uni0442" unicode="&#x0442;" d="M414 454L290 454L290 0L117 0L117 454L-6 454L-6 504L414 504L414 454Z"  horiz-adv-x="406" vert-adv-y="1000"  />

      
      <glyph glyph-name="uni0443" unicode="&#x0443;" d="M447 504L229-65Q184-182 109-182Q35-182 8-116L69-70Q76-128 107-128Q129-128 143-111Q154-98 182-25L-11 504L180 504L276 208L384 504L447 504Z"  horiz-adv-x="437" vert-adv-y="1000"  />

      
      <glyph glyph-name="uni0444" unicode="&#x0444;" d="M758 253Q758 0 591 0Q518 0 477 54L477-170L307-170L307 54Q265 0 194 0Q24 0 24 253Q24 352 57 422Q101 513 189 513Q265 513 307 440L307 682L477 682L477 440Q519 513 595 513Q683 513 726 422Q758 353 758 253M579 256Q579 444 531 444Q475 444 475 256Q475 60 529 60Q579 60 579 256M308 256Q308 444 251 444Q204 444 204 256Q204 60 253 60Q308 60 308 256Z"  horiz-adv-x="782" vert-adv-y="1000"  />

      
      <glyph glyph-name="uni0445" unicode="&#x0445;" d="M461 0L265 0L175 165L61 0L-6 0L146 219L-5 504L194 504L272 358L375 504L440 504L300 302L461 0Z"  horiz-adv-x="457" vert-adv-y="1000"  />

      
      <glyph glyph-name="uni0446" unicode="&#x0446;" d="M550-66L499-89L499 0L50 0L50 504L224 504L224 48L326 48L326 504L499 504L499 48L550 48L550-66Z"  horiz-adv-x="553" vert-adv-y="1000"  />

      
      <glyph glyph-name="uni0447" unicode="&#x0447;" d="M460 0L286 0L286 214Q246 206 215 206Q122 206 80 235Q30 270 30 359L30 504L196 504L196 366Q196 295 206 276Q216 257 248 257Q265 257 286 264L286 504L460 504L460 0Z"  horiz-adv-x="508" vert-adv-y="1000"  />

      
      <glyph glyph-name="uni0448" unicode="&#x0448;" d="M622 0L45 0L45 504L218 504L218 48L308 48L308 402L360 402L360 48L448 48L448 504L622 504L622 0Z"  horiz-adv-x="666" vert-adv-y="1000"  />

      
      <glyph glyph-name="uni0449" unicode="&#x0449;" d="M673-66L621-89L621 0L44 0L44 504L217 504L217 48L307 48L307 402L359 402L359 48L447 48L447 504L621 504L621 48L673 48L673-66Z"  horiz-adv-x="673" vert-adv-y="1000"  />

      
      <glyph glyph-name="uni044A" unicode="&#x044A;" d="M543 148Q543 0 349 0L117 0L117 456L-3 456L-3 504L288 504L288 297Q404 297 456 277Q543 244 543 148M378 145Q378 237 344 248Q332 252 311 252L288 252L288 45L311 45Q357 45 370 74Q378 92 378 145Z"  horiz-adv-x="562" vert-adv-y="1000"  />

      
      <glyph glyph-name="uni044B" unicode="&#x044B;" d="M702 0L531 0L531 504L702 504L702 0M475 148Q475 0 281 0L49 0L49 504L220 504L220 297Q336 297 388 277Q475 244 475 148M310 145Q310 237 276 248Q264 252 243 252L220 252L220 45L243 45Q289 45 302 74Q310 92 310 145Z"  horiz-adv-x="751" vert-adv-y="1000"  />

      
      <glyph glyph-name="uni044C" unicode="&#x044C;" d="M484 148Q484 0 291 0L49 0L49 504L220 504L220 297Q342 297 393 279Q484 246 484 148M310 145Q310 237 276 248Q264 252 243 252L220 252L220 45L243 45Q289 45 302 74Q310 92 310 145Z"  horiz-adv-x="503" vert-adv-y="1000"  />

      
      <glyph glyph-name="uni044D" unicode="&#x044D;" d="M452 251Q452-11 208-11Q150-11 105 11Q52 36 31 84Q19 111 19 165L91 184Q85 136 85 135Q85 34 186 34Q243 34 261 89Q278 140 278 251L178 251L178 297L278 297Q278 473 196 473Q102 473 102 374Q102 362 104 340L34 365Q35 436 87 478Q136 518 208 518Q330 518 393 444Q452 375 452 251Z"  horiz-adv-x="479" vert-adv-y="1000"  />

      
      <glyph glyph-name="uni044E" unicode="&#x044E;" d="M744 252Q744 132 688 65Q628-8 510-8Q391-8 332 64Q277 130 277 251L220 251L220 0L49 0L49 504L220 504L220 297L278 297Q288 400 347 456Q406 512 510 512Q628 512 688 439Q744 372 744 252M570 252Q570 471 510 471Q451 471 451 252Q451 32 510 32Q570 32 570 252Z"  horiz-adv-x="771" vert-adv-y="1000"  />

      
      <glyph glyph-name="uni044F" unicode="&#x044F;" d="M475 0L305 0L305 224L290 224Q246 224 230.50 203.50Q215 183 215 109Q214 31 196 0L12 0Q24 15 32.50 41.50Q41 68 41 112Q41 170 64 199Q87 228 144 242Q35 269 35 361Q35 504 224 504L475 504L475 0M305 265L305 458L277 458Q206 458 206 361Q206 265 277 265L305 265Z"  horiz-adv-x="524" vert-adv-y="1000"  />

      
      <glyph glyph-name="uni0451" unicode="&#x0451;" d="M444 632Q444 566 368 566Q291 566 291 632Q291 698 368 698Q444 698 444 632M230 632Q230 566 154 566Q77 566 77 632Q77 698 154 698Q230 698 230 632M459 163Q447-12 264-12Q26-12 26 240Q26 351 82 430Q144 518 251 518Q458 518 458 236L206 236Q206 38 300 38Q360 38 379 85Q390 113 390 184L459 163M308 292Q308 468 259 468Q224 468 213 393Q209 371 206 292L308 292Z"  horiz-adv-x="485" vert-adv-y="1000"  />

      
      <glyph glyph-name="uni2013" unicode="&#x2013;" d="M496 206L16 206L16 344L496 344L496 206Z"  horiz-adv-x="512" vert-adv-y="1000"  />

      
      <glyph glyph-name="uni2014" unicode="&#x2014;" d="M765 206L15 206L15 344L765 344L765 206Z"  horiz-adv-x="780" vert-adv-y="1000"  />

      
      <glyph glyph-name="uni2018" unicode="&#x2018;" d="M221 494Q221 401 133 401Q48 401 48 511Q48 682 198 731L198 665Q154 636 142 584Q221 584 221 494Z"  horiz-adv-x="269" vert-adv-y="1000"  />

      
      <glyph glyph-name="uni2019" unicode="&#x2019;" d="M221 620Q221 449 71 401L71 467Q114 494 129 548Q49 548 49 637Q49 730 137 730Q221 730 221 620Z"  horiz-adv-x="269" vert-adv-y="1000"  />

      
      <glyph glyph-name="uni201A" unicode="&#x201A;" d="M232 72Q232-98 82-148L82-80Q125-52 138 0Q58 0 58 90Q58 183 146 183Q232 183 232 72Z"  horiz-adv-x="288" vert-adv-y="1000"  />

      
      <glyph glyph-name="uni201C" unicode="&#x201C;" d="M436 494Q436 401 349 401Q263 401 263 511Q263 682 414 731L414 665Q370 636 358 584Q436 584 436 494M221 494Q221 401 133 401Q48 401 48 511Q48 682 198 731L198 665Q154 636 142 584Q221 584 221 494Z"  horiz-adv-x="484" vert-adv-y="1000"  />

      
      <glyph glyph-name="uni201D" unicode="&#x201D;" d="M438 620Q438 449 287 401L287 467Q330 496 344 548Q264 548 264 637Q264 730 352 730Q438 730 438 620M221 620Q221 449 71 401L71 467Q114 494 128 548Q49 548 49 637Q49 730 137 730Q221 730 221 620Z"  horiz-adv-x="484" vert-adv-y="1000"  />

      
      <glyph glyph-name="uni201E" unicode="&#x201E;" d="M438 72Q438-99 287-148L287-80Q330-53 344 0Q264 0 264 90Q264 183 352 183Q438 183 438 72M221 72Q221-99 71-148L71-80Q114-55 128 0Q49 0 49 90Q49 183 137 183Q221 183 221 72Z"  horiz-adv-x="484" vert-adv-y="1000"  />

      
      <glyph glyph-name="uni2020" unicode="&#x2020;" d="M558 416L399 416L399-81L218-81L218 416L58 416L58 498L218 498L218 720L399 720L399 498L558 498L558 416Z"  horiz-adv-x="618" vert-adv-y="1000"  />

      
      <glyph glyph-name="uni2022" unicode="&#x2022;" d="M300 366Q300 305 256 260.50Q212 216 151 216Q89 216 44.50 260.50Q0 305 0 366Q0 427 44.50 471.50Q89 516 151 516Q212 516 256 471.50Q300 427 300 366Z"  horiz-adv-x="300" vert-adv-y="1000"  />

      
      <glyph glyph-name="uni2026" unicode="&#x2026;" d="M807 82Q807-11 721-11Q634-11 634 82Q634 175 721 175Q807 175 807 82M519 82Q519-11 433-11Q345-11 345 82Q345 175 433 175Q519 175 519 82M232 82Q232-11 144-11Q57-11 57 82Q57 175 144 175Q232 175 232 82Z"  horiz-adv-x="866" vert-adv-y="1000"  />

      
      <glyph glyph-name="uni2030" unicode="&#x2030;" d="M1131 179Q1131-6 975-6Q818-6 818 179Q818 365 975 365Q1131 365 1131 179M782 179Q782-6 625-6Q467-6 467 179Q467 365 625 365Q782 365 782 179M605 720L288 0L218 0L534 720L605 720M353 540Q353 354 197 354Q40 354 40 540Q40 726 197 726Q353 726 353 540M1013 179Q1013 335 975 335Q936 335 936 179Q936 25 975 25Q1013 25 1013 179M663 179Q663 335 625 335Q585 335 585 179Q585 25 625 25Q663 25 663 179M235 540Q235 694 197 694Q158 694 158 540Q158 385 197 385Q235 385 235 540Z"  horiz-adv-x="1171" vert-adv-y="1000"  />

      
      <glyph glyph-name="uni2039" unicode="&#x2039;" d="M229 65L129 65L37 254L37 298L129 485L229 485L145 276L229 65Z"  horiz-adv-x="276" vert-adv-y="1000"  />

      
      <glyph glyph-name="uni203A" unicode="&#x203A;" d="M238 254L147 65L47 65L130 276L47 485L147 485L238 298L238 254Z"  horiz-adv-x="276" vert-adv-y="1000"  />

      
      <glyph glyph-name="uni2116" unicode="&#x2116;" d="M932 345Q932 176 770 176Q608 176 608 345Q608 513 770 513Q932 513 932 345M913 44L628 44L628 114L913 114L913 44M551 0L400 0L121 456L121 0L54 0L54 720L178 720L486 228L486 720L551 720L551 0M803 345Q803 482 770 482Q738 482 738 345Q738 208 770 208Q803 208 803 345Z"  horiz-adv-x="968" vert-adv-y="1000"  />

      
      <glyph glyph-name="uni2122" unicode="&#x2122;" d="M761 310L629 310L629 557L626 557L557 310L486 310L414 557L411 557L411 310L363 310L363 720L491 720L557 485L622 720L761 720L761 310M342 677L238 677L238 310L103 310L103 677L0 677L0 720L342 720L342 677Z"  horiz-adv-x="804" vert-adv-y="1000"  />

      
      <glyph glyph-name="unib7" unicode="&#xb7;" d="M232 324Q232 241 144 241Q57 241 57 324Q57 408 144 408Q232 408 232 324Z"  horiz-adv-x="288" vert-adv-y="1000"  />

      
      <glyph glyph-name="uni2219" unicode="&#x2219;" d="M232 324Q232 241 144 241Q57 241 57 324Q57 408 144 408Q232 408 232 324Z"  horiz-adv-x="288" vert-adv-y="1000"  />

      

  </font>
</defs>
</svg>
